<?xml version="1.0" encoding="UTF-8"?>
<svg width="60px" height="60px" viewBox="0 0 60 60" version="1.1" xmlns="http://www.w3.org/2000/svg" xmlns:xlink="http://www.w3.org/1999/xlink">
    <title>diesel 60x60</title>
    <g id="diesel-60x60" stroke="none" stroke-width="1" fill="none" fill-rule="evenodd">
        <g id="diesel" transform="translate(0.000000, 9.000000)" fill="#FFFFFF" fill-rule="nonzero">
            <path d="M25.4235669,21.4605096 C25.2343949,21.6821656 25.077707,21.8751592 24.9095541,22.0585987 C23.3808917,23.7248408 21.8713376,25.4063694 20.3178344,27.0458599 C19.0528662,28.3796178 18.8025478,29.8949045 19.4961783,31.5343949 C20.3140127,33.4700637 21.9133758,34.7484076 23.6847134,35.6675159 C27.3496815,37.566879 31.0987261,39.3076433 34.8363057,41.0656051 C35.5375796,41.3961783 36.3343949,41.6254777 37.1044586,41.6847134 C39.8656051,41.8968153 42.6363057,41.9541401 45.3955414,42.189172 C47.2738854,42.3477707 48.9,41.9082803 50.4,40.7904459 C53.0006369,38.8509554 55.6318471,36.9515924 58.2477707,35.0350318 C59.8012739,33.8961783 60.3401274,31.8745223 59.5605096,30.0974522 C58.8573248,28.4961783 58.1503185,26.8987261 57.4394904,25.3012739 C56.9292994,24.1547771 56.411465,23.0140127 55.8420382,21.7471338 C55.3394904,22.4942675 55.0127389,23.2146497 54.4815287,23.7267516 C52.8764331,25.2764331 52.8917197,26.8452229 54.0515924,28.6528662 C54.6745223,29.6235669 54.4012739,30.3420382 53.455414,31.0318471 C51.2464968,32.644586 49.0700637,34.3089172 46.7904459,35.8165605 C46.0452229,36.3095541 45.0305732,36.5713376 44.1267516,36.6076433 C42.3191083,36.6802548 40.5,36.5579618 38.688535,36.4414013 C38.0082803,36.3974522 37.2840764,36.2675159 36.6764331,35.9770701 C33.2942675,34.3585987 29.9407643,32.6789809 26.5796178,31.0184713 C26.3636943,30.911465 26.1649682,30.7738854 25.8363057,30.5789809 C26.3636943,30.0764331 26.8700637,29.6847134 27.2617834,29.1993631 C27.6878981,28.6738854 28.0605096,28.6929936 28.6414013,28.9547771 C31.1044586,30.0611465 33.6133758,31.0700637 36.0726115,32.1859873 C38.6980892,33.3764331 41.3522293,34.0070064 44.1878981,33.0191083 C44.5757962,32.8834395 45,32.8146497 45.3458599,32.6082803 C46.0089172,32.2146497 46.1503185,31.6242038 45.8942675,30.8808917 C45.6248408,30.0974522 45.1012739,30.2656051 44.5050955,30.3496815 C43.6949045,30.4643312 42.8006369,30.7089172 42.0630573,30.4910828 C38.3942675,29.4095541 34.8592357,27.9859873 31.6681529,25.8248408 C31.4216561,25.6566879 31.2171975,25.4235669 30.9802548,25.2095541 C33.4528662,22.5745223 35.8681529,20.0426752 38.2203822,17.4515924 C38.5719745,17.0636943 38.8757962,16.3280255 38.7535032,15.8732484 C38.455414,14.7649682 37.8248408,13.7942675 36.6248408,13.3738854 C34.2248408,12.5350318 31.8210191,11.7095541 29.4401274,10.8191083 C28.8687898,10.6050955 28.5420382,10.6624204 28.1350318,11.111465 C26.743949,12.643949 25.3070064,14.1324841 23.8929936,15.6420382 C23.1191083,16.4675159 22.3547771,17.3025478 21.5617834,18.1585987 C22.8878981,19.2898089 24.1414013,20.3617834 25.4235669,21.4605096 Z M38.7515924,25.2515924 C39.6707006,26.6121019 40.7350318,26.8853503 42.3535032,26.2949045 C42.6496815,26.1878981 43.0738854,26.1917197 43.3547771,26.3235669 C44.5318471,26.877707 45.6305732,26.7324841 46.7216561,26.111465 C46.9203822,25.9987261 47.2070064,25.8133758 47.3598726,25.8783439 C49.0681529,26.6044586 50.2433121,25.7694268 51.2713376,24.5617834 C52.8592357,22.6968153 54.3974522,20.7936306 55.9910828,18.9343949 C57.5121019,17.1592357 57.9859873,15.1356688 57.4968153,12.8828025 C57.1165605,11.1382166 57.0630573,9.36496815 57.5770701,7.68917197 C57.9726115,6.40127389 57.6286624,5.58152866 56.7859873,4.67961783 C55.4082803,3.2044586 54.1318471,1.63375796 52.756051,0.0363057325 C51.1509554,2.1 49.5840764,4.02038217 48.1261146,6.01719745 C46.9490446,7.62993631 45.4471338,8.06751592 43.5363057,7.82101911 C42.6974522,7.71210191 41.6675159,7.7522293 40.9681529,8.15350318 C39.5006369,8.99426752 38.1955414,10.1159236 36.6878981,11.222293 C37.144586,11.4573248 37.3757962,11.6312102 37.633758,11.7019108 C39.6076433,12.2426752 40.744586,13.5840764 41.4515924,15.4471338 C41.8796178,16.5745223 41.8968153,16.9853503 41.0388535,17.8146497 C39.0496815,19.7388535 37.0566879,21.6611465 35.0656051,23.5853503 C34.3815287,24.2464968 34.4121019,24.8121019 35.2184713,25.3433121 C36.3764331,26.1038217 37.5515924,26.0254777 38.7515924,25.2515924 Z M6.05159236,12.6191083 C6.65923567,12.1566879 7.2133758,11.7324841 7.76942675,11.3121019 C8.72101911,10.5936306 9.79490446,10.2821656 10.9815287,10.3318471 C11.4382166,10.3509554 11.7974522,10.3585987 11.9407643,10.9834395 C12.0745223,11.566242 12.6687898,11.7496815 13.1675159,11.3980892 C14.0006369,10.8095541 14.1038217,11.210828 14.1707006,11.9617834 C14.2356688,12.6993631 14.8414013,13.0261146 15.4681529,12.6515924 C16.2019108,12.2121019 16.4254777,12.4031847 16.4598726,13.2 C16.4961783,14.0598726 17.1401274,14.466879 17.7974522,14.0101911 C18.5503185,13.488535 18.6133758,13.788535 18.6592357,14.4917197 C18.7070064,15.2254777 19.511465,15.6630573 19.9261146,15.166242 C20.5280255,14.443949 21.0076433,14.8547771 21.5904459,15.0363057 C21.8770701,15.1261146 22.3624204,15.1987261 22.5,15.0458599 C23.4324841,14.0178344 24.2961783,12.9248408 25.2286624,11.7993631 C23.6904459,11.0292994 22.2458599,10.3089172 20.8031847,9.5866242 C18.1624204,8.26624204 15.5426752,6.9 12.8713376,5.64267516 C11.4898089,4.99299363 9.97643312,4.78471338 8.51464968,5.3866242 C6.2044586,6.33630573 4.23821656,7.82101911 2.34458599,9.55031847 C3.59044586,10.5802548 4.78280255,11.5681529 6.05159236,12.6191083 Z M3.35541401,12.9515924 C2.39617834,14.4305732 1.4522293,15.6783439 0.74522293,17.0484076 C0.32866242,17.8585987 0.072611465,18.8732484 0.122292994,19.7751592 C0.225477707,21.6515924 2.17452229,23.0407643 3.97834395,22.7235669 C6,22.3681529 7.24203822,20.5585987 6.76815287,18.5751592 C6.25605096,16.4407643 4.91656051,14.7936306 3.35541401,12.9515924 Z" id="Shape"></path>
            <path d="M25.4235669,21.4605096 C24.1414013,20.3636943 22.8898089,19.2898089 21.5656051,18.1566879 C22.3585987,17.3006369 23.1229299,16.4656051 23.8968153,15.6401274 C25.310828,14.1305732 26.7496815,12.6420382 28.1388535,11.1095541 C28.5458599,10.6605096 28.8707006,10.6031847 29.443949,10.8171975 C31.8248408,11.7076433 34.2286624,12.5312102 36.6286624,13.3719745 C37.8286624,13.7923567 38.4592357,14.7630573 38.7573248,15.8713376 C38.8796178,16.3261146 38.5757962,17.0617834 38.2242038,17.4496815 C35.8738854,20.0407643 33.4566879,22.5745223 30.9840764,25.2076433 C31.2210191,25.4216561 31.4235669,25.6547771 31.6719745,25.8229299 C34.8630573,27.9840764 38.3980892,29.4095541 42.066879,30.489172 C42.8063694,30.7070064 43.6987261,30.4624204 44.5089172,30.3477707 C45.1050955,30.2636943 45.6286624,30.0955414 45.8980892,30.8789809 C46.1541401,31.622293 46.0127389,32.2127389 45.3496815,32.6063694 C45.0038217,32.810828 44.5796178,32.8815287 44.1917197,33.0171975 C41.356051,34.0050955 38.7019108,33.3745223 36.0764331,32.1840764 C33.6171975,31.0681529 31.1082803,30.0592357 28.6452229,28.9528662 C28.0643312,28.6910828 27.6917197,28.6719745 27.2656051,29.1974522 C26.8738854,29.6828025 26.3675159,30.0764331 25.8401274,30.5770701 C26.1687898,30.7719745 26.3675159,30.9095541 26.5834395,31.0165605 C29.944586,32.6789809 33.2980892,34.3566879 36.6802548,35.9751592 C37.2878981,36.2656051 38.0121019,36.3974522 38.6923567,36.4394904 C40.5019108,36.5541401 42.3229299,36.6764331 44.1305732,36.6057325 C45.0343949,36.5694268 46.0490446,36.3076433 46.7942675,35.8146497 C49.0738854,34.3070064 51.2484076,32.6426752 53.4592357,31.0299363 C54.4050955,30.3401274 54.6783439,29.6216561 54.055414,28.6509554 C52.8955414,26.8433121 52.8802548,25.2745223 54.4853503,23.7248408 C55.0146497,23.2127389 55.3433121,22.4923567 55.8458599,21.7452229 C56.4152866,23.0101911 56.933121,24.1528662 57.4433121,25.2993631 C58.1541401,26.8968153 58.8611465,28.4942675 59.5643312,30.0955414 C60.343949,31.8726115 59.8050955,33.8942675 58.2515924,35.033121 C55.6356688,36.9515924 53.0044586,38.8509554 50.4038217,40.788535 C48.9038217,41.9063694 47.2757962,42.3477707 45.3993631,42.1872611 C42.6420382,41.9522293 39.8694268,41.8949045 37.1082803,41.6828025 C36.3382166,41.6235669 35.5414013,41.3942675 34.8401274,41.0636943 C31.1025478,39.3057325 27.3535032,37.5649682 23.688535,35.6656051 C21.9152866,34.7464968 20.3178344,33.4681529 19.5,31.5324841 C18.8063694,29.8910828 19.0585987,28.377707 20.3216561,27.043949 C21.8751592,25.4044586 23.3866242,23.7229299 24.9133758,22.0566879 C25.077707,21.8751592 25.2343949,21.6802548 25.4235669,21.4605096 Z" id="Path"></path>
            <path d="M38.7515924,25.2515924 C37.5496815,26.0273885 36.3764331,26.1038217 35.2184713,25.3394904 C34.4121019,24.8063694 34.3815287,24.2426752 35.0656051,23.5815287 C37.0547771,21.6573248 39.0477707,19.7350318 41.0388535,17.810828 C41.8968153,16.9796178 41.8796178,16.5707006 41.4515924,15.4433121 C40.744586,13.5802548 39.6057325,12.2407643 37.633758,11.6980892 C37.3738854,11.6273885 37.1426752,11.4535032 36.6878981,11.2184713 C38.1955414,10.1121019 39.5006369,8.99044586 40.9681529,8.14968153 C41.6675159,7.75031847 42.6974522,7.70828025 43.5363057,7.81719745 C45.4452229,8.06369427 46.9471338,7.62611465 48.1261146,6.0133758 C49.5840764,4.01656051 51.1509554,2.09617834 52.756051,0.0324840764 C54.1318471,1.62993631 55.4082803,3.20254777 56.7859873,4.67579618 C57.6286624,5.57770701 57.9726115,6.3955414 57.5770701,7.68535032 C57.0630573,9.3611465 57.1184713,11.1343949 57.4968153,12.8789809 C57.9859873,15.1318471 57.5140127,17.155414 55.9910828,18.9305732 C54.3974522,20.7898089 52.8592357,22.6949045 51.2713376,24.5579618 C50.2433121,25.7656051 49.0681529,26.6006369 47.3598726,25.8745223 C47.2070064,25.8095541 46.9203822,25.9949045 46.7216561,26.1076433 C45.6324841,26.7286624 44.533758,26.8738854 43.3547771,26.3197452 C43.0738854,26.1878981 42.6496815,26.1821656 42.3535032,26.2910828 C40.7350318,26.8834395 39.6707006,26.6121019 38.7515924,25.2515924 Z" id="Path"></path>
            <path d="M6.05159236,12.6191083 C4.78280255,11.5681529 3.58853503,10.5802548 2.34076433,9.54649682 C4.23248408,7.81528662 6.20063694,6.33057325 8.51082803,5.38280255 C9.97452229,4.78089172 11.4878981,4.98917197 12.8675159,5.6388535 C15.5388535,6.89617834 18.1585987,8.26242038 20.7993631,9.58280255 C22.2420382,10.3050955 23.6866242,11.0273885 25.2248408,11.7955414 C24.2923567,12.9229299 23.4286624,14.0140127 22.4961783,15.0420382 C22.3585987,15.1949045 21.8732484,15.122293 21.5866242,15.0324841 C21.0057325,14.8528662 20.5242038,14.4401274 19.922293,15.1624204 C19.5095541,15.6592357 18.7050955,15.2216561 18.655414,14.4878981 C18.6095541,13.7866242 18.5464968,13.4847134 17.7936306,14.0063694 C17.1363057,14.4630573 16.4942675,14.056051 16.456051,13.1961783 C16.4216561,12.3993631 16.1980892,12.2082803 15.4643312,12.6477707 C14.8375796,13.022293 14.233758,12.6955414 14.166879,11.9579618 C14.1,11.2070064 13.9968153,10.8057325 13.1636943,11.3942675 C12.6649682,11.7458599 12.0726115,11.5624204 11.9369427,10.9796178 C11.7936306,10.3547771 11.4343949,10.3471338 10.977707,10.3280255 C9.7910828,10.2783439 8.71528662,10.5898089 7.7656051,11.3082803 C7.2133758,11.7324841 6.65923567,12.1566879 6.05159236,12.6191083 Z" id="Path"></path>
            <path d="M3.35541401,12.9515924 C4.91656051,14.7917197 6.25796178,16.4388535 6.76815287,18.5751592 C7.24203822,20.5585987 6.00191083,22.3681529 3.97834395,22.7235669 C2.17452229,23.0407643 0.225477707,21.6515924 0.122292994,19.7751592 C0.072611465,18.8732484 0.32866242,17.8585987 0.74522293,17.0484076 C1.45031847,15.6783439 2.39426752,14.4305732 3.35541401,12.9515924 Z" id="Path"></path>
        </g>
    </g>
</svg>