<?xml version="1.0" encoding="UTF-8"?>
<svg width="60px" height="60px" viewBox="0 0 60 60" version="1.1" xmlns="http://www.w3.org/2000/svg" xmlns:xlink="http://www.w3.org/1999/xlink">
    <title>fuel oil 60x60</title>
    <g id="fuel-oil-60x60" stroke="none" stroke-width="1" fill="none" fill-rule="evenodd">
        <g id="fuel-oil" transform="translate(0.000000, 18.000000)" fill="#FFFFFF" fill-rule="nonzero">
            <path d="M1.04792627,12.1990783 C1.57603687,14.6903226 2.1124424,16.924424 2.5078341,19.1861751 C2.71520737,20.3695853 3.23225806,20.7235023 4.43225806,20.7207534 C21.9400922,20.6792627 39.4506912,20.6903226 56.9585253,20.6875576 C59.518894,20.6875576 59.518894,20.6875576 59.5105991,18.0967742 C59.5105991,17.9668203 59.4580645,17.8368664 59.39447,17.5327189 C58.8635945,17.5327189 58.324424,17.5410138 57.7852535,17.5299539 C47.6516129,17.3225806 37.5152074,16.9133641 27.3843318,17.0046083 C23.2562212,17.040553 19.918894,16.2497696 17.39447,12.8820276 C17.1483871,12.5557604 16.6506912,12.2294931 16.2663594,12.2267281 C11.2506912,12.1852535 6.23225806,12.1990783 1.04792627,12.1990783 Z M0.677419355,10.6700461 C0.959447005,10.7308756 1.04792627,10.7640553 1.13640553,10.7640553 C4.63686636,10.7695853 8.15668203,11.0239631 11.6294931,10.7087558 C15.6442396,10.3437788 18.8875576,11.2645161 21.3815668,14.5576037 C21.7493088,15.0442396 22.6258065,15.3677419 23.278341,15.3815668 C34.9686636,15.6470046 46.6617512,15.840553 58.3548387,16.0866359 C59.3419355,16.1087558 59.7262673,15.8764977 59.7788018,14.8175115 C59.8368664,13.6479263 59.2700461,13.5069124 58.3658986,13.5539171 C58.1087558,13.5677419 57.843318,13.4820276 57.5115207,13.4294931 C57.5502304,12.8709677 57.4451613,12.3096774 57.6470046,11.8976959 C58.3741935,10.4101382 58.3493088,10.3050691 56.7096774,10.3023041 C47.5935484,10.2995392 38.4774194,10.3023041 29.3612903,10.3023041 C27.4728111,10.3023041 25.5843318,10.3050691 23.6986175,10.2995392 C22.8774194,10.2967742 22.4654378,10.6064516 22.7308756,11.4829493 C22.8635945,11.9225806 22.9907834,12.362212 23.1207373,12.8018433 C22.5953917,12.6221198 21.962212,12.5751152 21.5668203,12.240553 C20.3723502,11.2313364 19.321659,10.0562212 18.1133641,9.06635945 C17.5990783,8.64608295 16.8414747,8.31152074 16.1889401,8.30322581 C11.3557604,8.24239631 6.51981567,8.27004608 1.68387097,8.28110599 C1.24147465,8.28110599 0.801843318,8.34193548 0.204608295,8.38617512 C0.384331797,9.24884793 0.528110599,9.94562212 0.677419355,10.6700461 Z M26.7290323,5.41382488 C26.037788,6.67465438 27.3898618,8.46082949 25.4599078,9.22949309 C26.6046083,9.22949309 27.7493088,9.22949309 28.8940092,9.22949309 C27.721659,8.72626728 27.7327189,7.88571429 28.0396313,6.9235023 C30.4866359,6.9235023 32.8506912,6.9235023 35.643318,6.9235023 C35.1843318,7.88018433 34.8497696,8.5797235 34.5483871,9.20737327 C35.4635945,9.20737327 36.6,9.20737327 37.7364055,9.20737327 C36.2737327,8.84792627 36.7797235,7.82764977 36.7990783,6.90414747 C39.2682028,6.90414747 41.6322581,6.90414747 44.4221198,6.90414747 C44.0156682,7.84147465 43.7087558,8.54654378 43.4156682,9.21843318 C44.2617512,9.21843318 45.4009217,9.21843318 46.5400922,9.21843318 C45.1548387,8.8562212 45.5917051,7.86082949 45.6359447,6.90138249 C48.0691244,6.90138249 50.4359447,6.90138249 53.2562212,6.90138249 C52.8110599,7.86359447 52.4709677,8.59631336 52.1751152,9.23778802 C53.1373272,9.23778802 54.2599078,9.23778802 55.0313364,9.23778802 C54.8239631,8.47465438 54.4423963,7.72258065 54.4534562,6.97603687 C54.4728111,5.76497696 54.1880184,5.29493088 52.8414747,5.30322581 C44.6046083,5.36682028 36.3677419,5.33087558 28.1308756,5.33364055 C27.6387097,5.33640553 27.1437788,5.38894009 26.7290323,5.41382488 Z M12.4949309,3.83225806 C9.69953917,3.97880184 9.56682028,4.14746544 10.083871,6.82396313 C11.2423963,6.82396313 12.4423963,6.93732719 13.6175115,6.80184332 C16.5069124,6.47004608 18.9926267,7.03963134 20.7788018,9.53640553 C20.8423963,9.62488479 21,9.64976959 21.2875576,9.79078341 C21.2875576,8.63778802 21.2875576,7.60092166 21.2875576,6.5640553 C21.2875576,4.05069124 21.2875576,4.05069124 18.8847926,3.83225806 C18.8129032,3.82672811 18.7465438,3.72995392 18.597235,3.61382488 C18.597235,2.94193548 18.5529954,2.20645161 18.6082949,1.47926267 C18.6884793,0.450691244 18.2460829,0.066359447 17.2423963,0.105069124 C16.0921659,0.149308756 14.9391705,0.135483871 13.7889401,0.107834101 C12.9511521,0.0884792627 12.4672811,0.376036866 12.4894009,1.29124424 C12.5115207,2.10691244 12.4949309,2.92534562 12.4949309,3.83225806 Z M8.9281106,6.75483871 C8.9281106,4.72534562 8.96958525,2.84792627 8.88663594,0.973271889 C8.87281106,0.674654378 8.31705069,0.182488479 7.99907834,0.171428571 C7.6562212,0.160368664 7.00368664,0.594470046 6.99262673,0.857142857 C6.90691244,2.80368664 6.94562212,4.75852535 6.94562212,6.75207373 C7.67281106,6.75483871 8.20368664,6.75483871 8.9281106,6.75483871 Z M5.94193548,6.74654378 C6.1797235,5.83963134 5.97511521,5.34193548 5.02396313,5.33640553 C4.04792627,5.33087558 3.90414747,5.86728111 4.11705069,6.74654378 C4.73364055,6.74654378 5.33640553,6.74654378 5.94193548,6.74654378 Z" id="Shape"></path>
            <path d="M1.04792627,12.1990783 C6.23225806,12.1990783 11.2479263,12.1852535 16.2635945,12.2267281 C16.6479263,12.2294931 17.1483871,12.5557604 17.3917051,12.8820276 C19.918894,16.2497696 23.2562212,17.040553 27.3815668,17.0046083 C37.5124424,16.916129 47.6488479,17.3253456 57.7824885,17.5299539 C58.321659,17.5410138 58.8608295,17.5327189 59.3917051,17.5327189 C59.4552995,17.8341014 59.5078341,17.9640553 59.5078341,18.0967742 C59.516129,20.6875576 59.516129,20.6875576 56.9557604,20.6875576 C39.4479263,20.6903226 21.9373272,20.6792627 4.42949309,20.7207535 C3.23225806,20.7235023 2.7124424,20.3723502 2.50506912,19.1861751 C2.1124424,16.9271889 1.57880184,14.6903226 1.04792627,12.1990783 Z" id="Path"></path>
            <path d="M0.677419355,10.6700461 C0.528110599,9.94562212 0.384331797,9.24884793 0.207373272,8.38617512 C0.804608295,8.34193548 1.24700461,8.28110599 1.68663594,8.28110599 C6.52258065,8.27281106 11.3557604,8.24239631 16.1917051,8.30322581 C16.8442396,8.31152074 17.6018433,8.64608295 18.116129,9.06635945 C19.324424,10.0562212 20.3751152,11.2341014 21.5695853,12.240553 C21.964977,12.5751152 22.5981567,12.6221198 23.1235023,12.8018433 C22.9935484,12.362212 22.8663594,11.9225806 22.7336406,11.4829493 C22.4682028,10.6064516 22.8801843,10.2967742 23.7013825,10.2995392 C25.5898618,10.3050691 27.478341,10.3023041 29.3640553,10.3023041 C38.4801843,10.3023041 47.5963134,10.2995392 56.7124424,10.3023041 C58.3520737,10.3023041 58.3769585,10.4073733 57.6497696,11.8976959 C57.4479263,12.3096774 57.5529954,12.8709677 57.5142857,13.4294931 C57.8460829,13.4820276 58.1115207,13.5677419 58.3686636,13.5539171 C59.2700461,13.5069124 59.8368664,13.6479263 59.7815668,14.8175115 C59.7290323,15.8764977 59.3447005,16.1059908 58.3576037,16.0866359 C46.6645161,15.840553 34.9714286,15.6442396 23.281106,15.3815668 C22.6313364,15.3677419 21.7520737,15.0442396 21.3843318,14.5576037 C18.8903226,11.2645161 15.6470046,10.3437788 11.6322581,10.7087558 C8.16221198,11.0239631 4.63963134,10.7695853 1.13917051,10.7640553 C1.04792627,10.7640553 0.956682028,10.7281106 0.677419355,10.6700461 Z" id="Path"></path>
            <path d="M26.7290323,5.41382488 C27.1465438,5.38894009 27.6387097,5.33640553 28.1336406,5.33640553 C36.3705069,5.33364055 44.6073733,5.36958525 52.8442396,5.30599078 C54.1907834,5.29493088 54.4728111,5.76774194 54.4562212,6.97880184 C54.4451613,7.72534562 54.8267281,8.47741935 55.0341014,9.240553 C54.2626728,9.240553 53.1428571,9.240553 52.1778802,9.240553 C52.4737327,8.59907834 52.8138249,7.86635945 53.2589862,6.90414747 C50.4387097,6.90414747 48.0718894,6.90414747 45.6387097,6.90414747 C45.59447,7.86359447 45.1576037,8.85898618 46.5428571,9.22119816 C45.4036866,9.22119816 44.2672811,9.22119816 43.4184332,9.22119816 C43.7115207,8.54930876 44.0184332,7.84423963 44.4248848,6.90691244 C41.635023,6.90691244 39.2709677,6.90691244 36.8018433,6.90691244 C36.7824885,7.83041475 36.2737327,8.85069124 37.7391705,9.21013825 C36.602765,9.21013825 35.4663594,9.21013825 34.5511521,9.21013825 C34.8525346,8.58248848 35.1870968,7.88294931 35.6460829,6.92626728 C32.8534562,6.92626728 30.4894009,6.92626728 28.0423963,6.92626728 C27.7354839,7.88847926 27.724424,8.73179724 28.8967742,9.23225806 C27.7520737,9.23225806 26.6073733,9.23225806 25.4626728,9.23225806 C27.3898618,8.45806452 26.037788,6.67465438 26.7290323,5.41382488 Z" id="Path"></path>
            <path d="M12.4949309,3.83225806 C12.4949309,2.92534562 12.5115207,2.10691244 12.4894009,1.29124424 C12.4672811,0.376036866 12.9511521,0.0884792627 13.7889401,0.107834101 C14.9391705,0.135483871 16.0921659,0.152073733 17.2423963,0.105069124 C18.243318,0.066359447 18.6857143,0.453456221 18.6082949,1.47926267 C18.5529954,2.20645161 18.597235,2.94193548 18.597235,3.61382488 C18.7465438,3.72995392 18.8101382,3.82396313 18.8847926,3.83225806 C21.2875576,4.05345622 21.2875576,4.05069124 21.2875576,6.5640553 C21.2875576,7.60092166 21.2875576,8.63778802 21.2875576,9.79078341 C21,9.64976959 20.8423963,9.62764977 20.7788018,9.53640553 C18.9926267,7.03963134 16.5069124,6.47004608 13.6175115,6.80184332 C12.4451613,6.93732719 11.2423963,6.82396313 10.083871,6.82396313 C9.56682028,4.14746544 9.69953917,3.97880184 12.4949309,3.83225806 Z" id="Path"></path>
            <path d="M8.9281106,6.75483871 C8.20368664,6.75483871 7.67004608,6.75483871 6.94562212,6.75483871 C6.94562212,4.75852535 6.90691244,2.80645161 6.99262673,0.859907834 C7.00368664,0.597235023 7.6562212,0.163133641 7.99907834,0.174193548 C8.31705069,0.185253456 8.87281106,0.677419355 8.88663594,0.976036866 C8.96958525,2.84792627 8.9281106,4.72534562 8.9281106,6.75483871 Z" id="Path"></path>
            <path d="M5.94193548,6.74654378 C5.33640553,6.74654378 4.73364055,6.74654378 4.11705069,6.74654378 C3.90691244,5.86451613 4.04792627,5.3281106 5.02396313,5.33640553 C5.97511521,5.34193548 6.1797235,5.83963134 5.94193548,6.74654378 Z" id="Path"></path>
        </g>
    </g>
</svg>