<?xml version="1.0" encoding="UTF-8"?>
<svg width="60px" height="60px" viewBox="0 0 60 60" version="1.1" xmlns="http://www.w3.org/2000/svg" xmlns:xlink="http://www.w3.org/1999/xlink">
    <title>gasoline 60x60</title>
    <g id="gasoline-60x60" stroke="none" stroke-width="1" fill="none" fill-rule="evenodd">
        <g id="gasoline" transform="translate(7.500000, 0.000000)" fill="#FFFFFF" fill-rule="nonzero">
            <path d="M30.3585937,7.171875 C30.3539062,5.92265625 29.9085937,5.45625 28.6617187,5.45390625 C21.6398437,5.4375 14.6179687,5.43515625 7.59609375,5.44921875 C6.253125,5.4515625 5.85703125,5.878125 5.8546875,7.209375 C5.84765625,11.5007813 5.84765625,15.7921875 5.8546875,20.0835938 C5.85703125,21.459375 6.18515625,21.7921875 7.5796875,21.7945313 C11.090625,21.8039063 14.6015625,21.796875 18.1125,21.796875 C21.5835937,21.796875 25.0570312,21.8015625 28.528125,21.7921875 C30.0140625,21.7898438 30.3445312,21.4898438 30.3515625,20.04375 C30.3703125,15.7546875 30.3726562,11.4632813 30.3585937,7.171875 Z M27.5789062,19.0523438 C21.2789062,19.0523438 14.9789062,19.0523438 8.59453125,19.0523438 C8.59453125,15.4523438 8.59453125,11.9203125 8.59453125,8.296875 C14.9039062,8.296875 21.2015625,8.296875 27.5789062,8.296875 C27.5789062,11.8289063 27.5789062,15.3984375 27.5789062,19.0523438 Z" id="Shape"></path>
            <g id="Group">
                <path d="M31.6148437,0.51328125 C34.471875,1.83046875 35.8125,4.1015625 35.8289063,7.19296875 C35.85,10.7015625 35.8359375,14.2125 35.8382812,17.7210938 C35.8382812,18.1429688 35.8382812,18.5648438 35.8382812,19.190625 C37.0546875,19.190625 38.1796875,19.125 39.2953125,19.2023438 C42.4289062,19.4226562 45.0914062,21.9328125 45.2273437,25.078125 C45.3984375,29.0484375 45.3304687,33.028125 45.3492187,37.003125 C45.3632812,40.2398438 45.3703125,43.4765625 45.346875,46.7132813 C45.3140625,51.24375 48.1476562,52.9945313 52.1578125,50.9039062 C52.2539062,50.8546875 52.3851562,50.8734375 52.5,50.859375 C52.5,51.8742187 52.5,52.8914063 52.5,53.90625 C49.6382812,55.0453125 46.9921875,54.7734375 44.690625,52.6195313 C43.3171875,51.3328125 42.6585937,49.6992188 42.65625,47.8148437 C42.6539062,40.8632812 42.6539062,33.909375 42.6585937,26.9578125 C42.6609375,23.2359375 41.2453125,21.8179687 37.4976562,21.8015625 C36.9960937,21.7992187 36.496875,21.8015625 35.8382812,21.8015625 C35.8382812,22.303125 35.8382812,22.715625 35.8382812,23.1304687 C35.8359375,31.059375 35.8359375,38.9882813 35.83125,46.9171875 C35.83125,47.3039062 35.9179687,47.7914063 35.7234375,48.05625 C35.41875,48.4734375 34.8890625,49.0265625 34.490625,48.9984375 C34.0125,48.965625 33.5039062,48.4429687 33.140625,48.01875 C32.9601562,47.8078125 33.0585937,47.34375 33.0585937,46.9921875 C33.05625,33.7523437 33.05625,20.5101562 33.0609375,7.2703125 C33.0609375,4.33125 31.55625,2.77265625 28.63125,2.76796875 C21.5625,2.75625 14.4914062,2.75625 7.42265625,2.765625 C4.70390625,2.76796875 3.0609375,4.40390625 3.05859375,7.153125 C3.04453125,21.99375 3.046875,36.8367187 3.04453125,51.6773437 C3.04453125,54.5320313 3.04921875,54.5320313 0.2296875,54.609375 C0.2296875,53.671875 0.2296875,52.734375 0.2296875,51.796875 C0.28125,51.4195312 0.375,51.0445313 0.375,50.6671875 C0.3796875,36.2578125 0.3890625,21.8484375 0.36328125,7.4390625 C0.35859375,4.18828125 1.6359375,1.809375 4.66875,0.46640625 C5.49140625,0.10546875 30.7382812,0.1078125 31.6148437,0.51328125 Z" id="Path"></path>
                <path d="M0.234375,57.1875 C1.9875,57.2226562 3.740625,57.2882812 5.49375,57.2882812 C15.2554688,57.2976563 25.0171875,57.2929688 34.7789063,57.290625 C35.2078125,57.290625 35.6390625,57.2882812 36.0632813,57.234375 C36.871875,57.1335937 37.303125,56.540625 37.1320313,55.8515625 C37.0125,55.3710938 36.459375,54.928125 35.9929688,54.6328125 C35.7117188,54.4546875 35.2335938,54.5882813 34.8421875,54.5882813 C25.9007813,54.5859375 16.959375,54.590625 8.01796875,54.5789063 C7.52109375,54.5789063 6.8625,54.6304688 6.5671875,54.3515625 C6.1875,53.9929687 5.7984375,53.19375 5.96015625,52.8234375 C6.1640625,52.359375 6.9140625,51.8671875 7.4390625,51.853125 C10.9523437,51.76875 14.465625,51.80625 17.98125,51.80625 C23.878125,51.80625 29.7726562,51.796875 35.6695312,51.815625 C37.6875,51.8226563 39.2882812,52.9007813 39.7171875,54.7382813 C40.5914062,58.48125 37.659375,59.8054688 37.5,59.9953125 C25.078125,59.9953125 12.65625,59.9953125 0.234375,59.9953125 C0.234375,59.0578125 0.234375,58.1226562 0.234375,57.1875 Z" id="Path"></path>
            </g>
            <path d="M25.33125,13.6382812 C25.2867187,14.4867188 24.8414063,14.9695313 24.0164063,14.9835938 C23.1726563,14.9976563 22.734375,14.484375 22.7039063,13.659375 C22.6710938,12.7804688 23.221875,12.3421875 24.0046875,12.328125 C24.8109375,12.3140625 25.2773438,12.8132813 25.33125,13.6382812 Z" id="Path"></path>
            <path d="M19.471875,13.6382812 C19.4273437,14.4867188 18.9820313,14.9695313 18.1570313,14.9835938 C17.3132813,14.9976563 16.875,14.484375 16.8445313,13.659375 C16.8117188,12.7804688 17.3625,12.3421875 18.1453125,12.328125 C18.9515625,12.3140625 19.4179688,12.8132813 19.471875,13.6382812 Z" id="Path"></path>
            <path d="M13.6125,13.6382812 C13.5679687,14.4867188 13.1226563,14.9695313 12.2976563,14.9835938 C11.4539063,14.9976563 11.015625,14.484375 10.9851563,13.659375 C10.9523438,12.7804688 11.503125,12.3421875 12.2859375,12.328125 C13.0921875,12.3140625 13.5585938,12.8132813 13.6125,13.6382812 Z" id="Path"></path>
            <path d="M19.06875,30.4757812 C18.4078125,29.8289062 17.4773437,29.8523437 16.9664062,30.6632812 C15.2414062,33.3914062 13.5445312,36.1476562 12.8132812,39.346875 C12.2789062,41.6859375 12.9609375,43.6898437 14.8148437,45.1875 C16.5,46.546875 18.4101562,46.8164062 20.3882812,45.8109375 C22.5023437,44.7351563 23.45625,42.9304688 23.5078125,40.9101562 C23.4890625,38.4070313 20.7210937,32.090625 19.06875,30.4757812 Z M19.5820312,43.134375 C18.7453125,43.790625 17.7773437,43.8210938 16.8351562,43.303125 C15.76875,42.7148438 15.2132812,41.5570313 15.421875,40.2164063 C15.7664062,37.9804688 16.9007812,36.0796875 17.990625,34.1648438 C18.1289062,34.14375 18.2671875,34.1226563 18.4054687,34.1015625 C19.1789062,36.0421875 20.0132812,37.9617188 20.7023437,39.9328125 C21.15,41.2148438 20.6085937,42.3304688 19.5820312,43.134375 Z" id="Shape"></path>
        </g>
    </g>
</svg>