<?xml version="1.0" encoding="UTF-8"?>
<svg width="60px" height="60px" viewBox="0 0 60 60" version="1.1" xmlns="http://www.w3.org/2000/svg" xmlns:xlink="http://www.w3.org/1999/xlink">
    <title>jet 60x60</title>
    <g id="jet-60x60" stroke="none" stroke-width="1" fill="none" fill-rule="evenodd">
        <g id="jet" fill="#FFFFFF" fill-rule="nonzero">
            <path d="M16.3648649,57.1351351 C17.2108108,56.2567568 17.9918919,55.5081081 18.6864865,54.6891892 C18.9378378,54.3918919 19.1378378,53.9054054 19.0972973,53.5324324 C18.8432432,51.1648649 18.4675676,48.8081081 18.2459459,46.4378378 C18.1972973,45.9243243 18.4594595,45.2027027 18.8378378,44.8567568 C20.7648649,43.0972973 22.7702703,41.4243243 24.7567568,39.7297297 C27.727027,37.1972973 30.7027027,34.6756757 33.8108108,32.0351351 C37.3486486,41.3135135 40.8297297,50.4378378 44.4648649,59.9702703 C45.5702703,58.7351351 46.4135135,57.672973 47.3918919,56.7513514 C48.0324324,56.1459459 48.1837838,55.5486486 48.0567568,54.7243243 C47.6864865,52.327027 47.4243243,49.9081081 47.0081081,47.5189189 C46.827027,46.4891892 47.1378378,45.7675676 47.6972973,44.9459459 C48.6297297,43.5810811 49.472973,42.1351351 50.1702703,40.6405405 C50.4027027,40.1432432 50.2945946,39.1675676 49.9405405,38.8054054 C49.6027027,38.4594595 48.7162162,38.5 48.1135135,38.6108108 C47.3972973,38.7405405 46.7243243,39.1243243 46.027027,39.4 C45.3972973,36.9972973 45.427027,37.0135135 46.7405405,35 C47.3513514,34.0648649 47.9567568,33.0837838 48.3162162,32.0378378 C48.5324324,31.4081081 48.5432432,30.3432432 48.1621622,29.9756757 C47.7702703,29.5972973 46.7837838,29.7567568 46.0675676,29.8189189 C45.6108108,29.8567568 45.1756757,30.1432432 44.6783784,30.3405405 C44.3702703,28.0891892 44.0162162,25.9567568 43.8297297,23.8108108 C43.7783784,23.2108108 44.0594595,22.4189189 44.4675676,21.9621622 C48.0513514,17.9243243 51.7972973,14.027027 55.2837838,9.90810811 C56.8621622,8.04594595 58.0243243,5.81351351 59.2513514,3.67837838 C59.7810811,2.75945946 60.2054054,1.58108108 59.2702703,0.667567568 C58.3162162,-0.267567568 57.1108108,0.145945946 56.1135135,0.62972973 C54.7054054,1.31351351 53.2432432,2.01891892 52.0594595,3.01621622 C47.6297297,6.75945946 43.2324324,10.5486486 38.9783784,14.4891892 C37.6459459,15.7243243 36.5,16.4108108 34.6621622,15.9594595 C32.9972973,15.5486486 31.2594595,15.4216216 29.5108108,15.1621622 C29.7378378,14.6054054 29.9864865,14.2405405 30.0216216,13.8540541 C30.0864865,13.1324324 30.3108108,12.0540541 29.9486486,11.7594595 C29.472973,11.372973 28.427027,11.3918919 27.7567568,11.6162162 C26.7108108,11.9675676 25.6405405,12.4918919 24.8216216,13.2135135 C23.4567568,14.4189189 22.0513514,14.3594595 20.472973,13.8756757 C20.7891892,13.0513514 21.1648649,12.2837838 21.3756757,11.472973 C21.7675676,9.96486486 20.8972973,9.05135135 19.4891892,9.65405405 C17.8135135,10.3702703 16.3027027,11.4594595 14.6702703,12.2864865 C14.0081081,12.6216216 13.1864865,12.9 12.472973,12.8324324 C9.88108108,12.5783784 7.3027027,12.1594595 4.71891892,11.8297297 C4.39459459,11.7891892 3.94054054,11.7891892 3.72972973,11.9756757 C2.51081081,13.0702703 1.34864865,14.227027 0.0540540541,15.472973 C9.49189189,19.0675676 18.6108108,22.5432432 27.8540541,26.0648649 C23.472973,31.1891892 19.2162162,36.1891892 14.9189189,41.1540541 C14.6567568,41.4567568 14.0675676,41.6540541 13.6513514,41.6216216 C11.7702703,41.472973 9.89189189,41.2540541 8.01891892,41.0054054 C5.52162162,40.672973 4.3,41.2864865 2.9972973,43.6594595 C5.6027027,44.9783784 8.22432432,46.2675676 10.8,47.6405405 C11.3486486,47.9324324 11.8756757,48.4594595 12.1702703,49.0054054 C13.5756757,51.6189189 14.8972973,54.2756757 16.3648649,57.1351351 Z" id="Path"></path>
            <path d="M16.3648649,57.1351351 C14.9,54.2756757 13.5756757,51.6216216 12.1702703,49.0108108 C11.8756757,48.4621622 11.3486486,47.9378378 10.8,47.6459459 C8.22432432,46.272973 5.6027027,44.9837838 2.9972973,43.6648649 C4.2972973,41.2945946 5.51891892,40.6810811 8.01891892,41.0108108 C9.89189189,41.2594595 11.7675676,41.4783784 13.6513514,41.627027 C14.0675676,41.6594595 14.6540541,41.4621622 14.9189189,41.1594595 C19.2162162,36.1945946 23.472973,31.1945946 27.8540541,26.0702703 C18.6108108,22.5486486 9.49189189,19.072973 0.0540540541,15.4783784 C1.35135135,14.2324324 2.51351351,13.0756757 3.72972973,11.9810811 C3.93783784,11.7945946 4.39189189,11.7918919 4.71891892,11.8351351 C7.30540541,12.1648649 9.88108108,12.5864865 12.472973,12.8378378 C13.1864865,12.9081081 14.0081081,12.627027 14.6702703,12.2918919 C16.3054054,11.4675676 17.8135135,10.3756757 19.4891892,9.65945946 C20.8972973,9.05675676 21.7675676,9.97027027 21.3756757,11.4783784 C21.1648649,12.2891892 20.7891892,13.0567568 20.472973,13.8810811 C22.0513514,14.3648649 23.4567568,14.4243243 24.8216216,13.2189189 C25.6405405,12.4945946 26.7108108,11.972973 27.7567568,11.6216216 C28.427027,11.3945946 29.4756757,11.3783784 29.9486486,11.7648649 C30.3081081,12.0567568 30.0864865,13.1378378 30.0216216,13.8594595 C29.9864865,14.2432432 29.7378378,14.6108108 29.5108108,15.1675676 C31.2621622,15.427027 32.9972973,15.5540541 34.6621622,15.9648649 C36.5,16.4162162 37.6459459,15.7297297 38.9783784,14.4945946 C43.2297297,10.5540541 47.6297297,6.76486486 52.0594595,3.02162162 C53.2432432,2.02162162 54.7027027,1.31891892 56.1135135,0.635135135 C57.1135135,0.148648649 58.3189189,-0.262162162 59.2702703,0.672972973 C60.2027027,1.58918919 59.7810811,2.76756757 59.2513514,3.68378378 C58.0216216,5.81891892 56.8594595,8.04864865 55.2837838,9.91351351 C51.7972973,14.0324324 48.0540541,17.9297297 44.4675676,21.9675676 C44.0621622,22.4243243 43.7783784,23.2135135 43.8297297,23.8162162 C44.0162162,25.9621622 44.372973,28.0918919 44.6783784,30.3459459 C45.1783784,30.1486486 45.6135135,29.8621622 46.0675676,29.8243243 C46.7837838,29.7648649 47.7702703,29.6027027 48.1621622,29.9810811 C48.5432432,30.3486486 48.5324324,31.4162162 48.3162162,32.0432432 C47.9540541,33.0891892 47.3513514,34.0702703 46.7405405,35.0054054 C45.427027,37.0189189 45.3972973,37 46.027027,39.4054054 C46.7243243,39.1297297 47.3945946,38.7459459 48.1135135,38.6162162 C48.7162162,38.5081081 49.6027027,38.4675676 49.9405405,38.8108108 C50.2945946,39.172973 50.4027027,40.1486486 50.1702703,40.6459459 C49.472973,42.1432432 48.627027,43.5864865 47.6972973,44.9513514 C47.1378378,45.772973 46.827027,46.4945946 47.0081081,47.5243243 C47.427027,49.9135135 47.6864865,52.3297297 48.0567568,54.7297297 C48.1837838,55.5540541 48.0324324,56.1513514 47.3918919,56.7567568 C46.4162162,57.6783784 45.572973,58.7432432 44.4648649,59.9756757 C40.8297297,50.4405405 37.3486486,41.3162162 33.8108108,32.0405405 C30.7027027,34.6810811 27.7243243,37.2027027 24.7567568,39.7351351 C22.7702703,41.4297297 20.7648649,43.1027027 18.8378378,44.8621622 C18.4621622,45.2054054 18.1972973,45.9297297 18.2459459,46.4432432 C18.4675676,48.8135135 18.8432432,51.1702703 19.0972973,53.5378378 C19.1378378,53.9108108 18.9378378,54.3972973 18.6864865,54.6945946 C17.9918919,55.5081081 17.2108108,56.2540541 16.3648649,57.1351351 Z" id="Path"></path>
        </g>
    </g>
</svg>