<?xml version="1.0" encoding="UTF-8"?>
<svg width="60px" height="60px" viewBox="0 0 60 60" version="1.1" xmlns="http://www.w3.org/2000/svg" xmlns:xlink="http://www.w3.org/1999/xlink">
    <title>LPG 60x60</title>
    <g id="LPG-60x60" stroke="none" stroke-width="1" fill="none" fill-rule="evenodd">
        <g id="LPG" transform="translate(10.000000, 0.000000)" fill="#FFFFFF" fill-rule="nonzero">
            <path d="M34.6872483,10.1597315 C34.1033557,9.85771812 33.5234899,8.94765101 33.4912752,8.29127517 C33.3583893,5.56912752 33.4348993,2.83892617 33.4348993,0.0322147651 C24.5154362,0.0322147651 15.8295302,0.0322147651 6.90604027,0.0322147651 C6.90604027,2.96778523 6.9704698,5.64563758 6.85771812,8.31543624 C6.8295302,8.93959732 6.35033557,9.84563758 5.82281879,10.1073826 C2.12214765,11.9315436 0.346308725,14.8228188 0.366273686,18.9422819 C0.406711409,27.3221477 0.394630872,35.7060403 0.370469799,44.085906 C0.358389262,48.0483221 2.14630872,50.8147651 5.6295302,52.6469799 C6.21744966,52.957047 6.7852349,53.842953 6.84966443,54.5114094 C7.01879195,56.2832215 6.90604027,58.0791946 6.90604027,59.9275168 C15.8496644,59.9275168 24.5355705,59.9275168 33.4348993,59.9275168 C33.4348993,58.0993289 33.4993289,56.3718121 33.4107383,54.652349 C33.3543624,53.5610738 33.7006711,53.033557 34.7355705,52.5543624 C38.1422819,50.9798658 39.9543624,48.261745 39.9583893,44.4483221 C39.966443,35.7986577 39.966443,27.1489933 39.966443,18.4993289 C39.9624161,14.6053691 38.0939597,11.9355705 34.6872483,10.1597315 Z M9.64832215,2.5409396 C16.7234899,2.5409396 23.6697987,2.5409396 30.7973154,2.5409396 C30.7973154,4.92483221 30.7973154,7.10738255 30.7973154,9.41879195 C27.7771812,9.41879195 24.8657718,9.41879195 21.8456376,9.41879195 C21.8456376,8.61342282 21.8456376,7.90067114 21.8456376,6.8738255 C23.0738255,6.8738255 24.3302013,6.99463087 25.5503356,6.82147651 C26.0979866,6.74496644 26.5651007,6.08053691 27.0684564,5.68187919 C26.5489933,5.28724832 26.0375839,4.5704698 25.5060403,4.55436242 C21.9543624,4.44966443 18.3986577,4.44966443 14.8469799,4.54630872 C14.3114094,4.56241611 13.8,5.28322148 13.2765101,5.68187919 C13.7879195,6.08053691 14.2550336,6.73288591 14.8147651,6.81744966 C15.9825503,6.99463087 17.190604,6.86979866 18.4751678,6.86979866 C18.4751678,7.82818792 18.4751678,8.5852349 18.4751678,9.43892617 C15.495302,9.43892617 12.6442953,9.43892617 9.65234899,9.43892617 C9.64832215,7.1033557 9.64832215,4.87248322 9.64832215,2.5409396 Z M8.80671141,12.1127517 C16.3812081,12.0362416 23.9557047,12.0281879 31.5302013,12.1167785 C34.6832215,12.1530201 36.8536913,14.3919463 37.3208054,17.8308725 C25.8322148,17.8308725 14.4724832,17.8308725 3.10067114,17.8308725 C3.43489933,14.4724832 5.6738255,12.1449664 8.80671141,12.1127517 Z M3.06845638,18.652349 C14.5530201,18.652349 25.8644295,18.652349 37.3087248,18.652349 C37.3087248,27.1449664 37.3087248,35.5530201 37.3087248,44.114094 C25.9651007,44.114094 14.609396,44.114094 3.06845638,44.114094 C3.06845638,35.714094 3.06845638,27.261745 3.06845638,18.652349 Z M30.7449664,57.4187919 C23.714094,57.4187919 16.7838926,57.4187919 9.68053691,57.4187919 C9.68053691,56.1302013 9.68053691,54.9060403 9.68053691,53.4805369 C16.6389262,53.4805369 23.609396,53.4805369 30.7449664,53.4805369 C30.7449664,54.7127517 30.7449664,55.9449664 30.7449664,57.4187919 Z M31.485906,50.7181208 C23.9114094,50.8026846 16.3328859,50.8067114 8.75838926,50.714094 C5.60134228,50.6778523 3.40671141,48.3342282 3.0966443,44.9919463 C14.4724832,44.9919463 25.8322148,44.9919463 37.3369128,44.9919463 C36.8416107,48.4751678 34.6590604,50.685906 31.485906,50.7181208 Z" id="Shape"></path>
        </g>
    </g>
</svg>