<?xml version="1.0" encoding="UTF-8"?>
<svg width="60px" height="60px" viewBox="0 0 60 60" version="1.1" xmlns="http://www.w3.org/2000/svg" xmlns:xlink="http://www.w3.org/1999/xlink">
    <title>sulphur 60x60</title>
    <g id="sulphur-60x60" stroke="none" stroke-width="1" fill="none" fill-rule="evenodd">
        <g id="sulphur" transform="translate(6.000000, 0.000000)" fill="#FFFFFF" fill-rule="nonzero">
            <path d="M23.4055728,0 C24.2099071,0 25.0160991,0 25.8204334,0 C27.7839009,0.839628483 29.171517,2.23653251 30.2321981,4.10526316 C36.2842105,14.7678019 42.393808,25.396904 48.4829721,36.0371517 C48.4829721,36.8414861 48.4829721,37.647678 48.4829721,38.4520124 C48.3640867,38.6934985 48.2266254,38.9294118 48.1263158,39.1801858 C47.3108359,41.2105263 45.9510836,42.5572755 43.647678,42.5869969 C38.7027864,42.6520124 33.7597523,42.6705882 28.8148607,42.7077399 C28.4526316,42.7095975 28.0904025,42.7077399 27.6798762,42.7077399 C27.6798762,44.1102167 27.6798762,45.4179567 27.6798762,46.8055728 C28.2204334,46.8055728 28.7089783,46.8018576 29.1956656,46.8055728 C29.6897833,46.8092879 30.1857585,46.7962848 30.6780186,46.8315789 C32.0489164,46.9318885 33.2712074,47.923839 33.5944272,49.1684211 C33.904644,50.3647059 33.304644,51.8043344 32.073065,52.4582043 C31.5287926,52.7479876 30.8452012,52.8334365 30.2136223,52.8854489 C29.3684211,52.9560372 28.5120743,52.9021672 27.6167183,52.9021672 C27.6167183,53.8681115 27.5665635,54.6743034 27.6260062,55.473065 C27.7764706,57.4866873 27.0798762,59.028483 25.2594427,59.9962848 C24.7021672,59.9962848 24.1448916,59.9962848 23.5876161,59.9962848 C21.9603715,58.9894737 21.295356,57.5479876 21.5071207,55.6383901 C21.6037152,54.7616099 21.523839,53.8662539 21.523839,52.8798762 C20.3851393,52.8798762 19.3653251,52.9263158 18.3529412,52.8687307 C16.9708978,52.7907121 15.774613,51.7170279 15.469969,50.377709 C15.219195,49.2705882 15.8470588,47.8904025 17.0321981,47.2755418 C17.5839009,46.9894737 18.2600619,46.8835913 18.8916409,46.8278638 C19.7386997,46.7535604 20.596904,46.8092879 21.4439628,46.8092879 C21.4439628,45.3640867 21.4439628,44.0544892 21.4439628,42.7040248 C20.9647059,42.7040248 20.5653251,42.7058824 20.1640867,42.7040248 C15.1504644,42.676161 10.1368421,42.6668731 5.12321981,42.6111455 C2.83281734,42.5851393 1.41733746,41.2922601 0.575851393,39.2582043 C0.460681115,38.9814241 0.313931889,38.7176471 0.182043344,38.4482972 C0.182043344,37.6439628 0.182043344,36.8377709 0.182043344,36.0334365 C0.46625387,35.498452 0.728173375,34.952322 1.03467492,34.4303406 C6.85448916,24.54613 12.6928793,14.673065 18.4959752,4.77956656 C19.7071207,2.7250774 20.9925697,0.79876161 23.4055728,0 Z M25.6551084,40.6773994 C29.4,40.6773994 33.0185759,40.6978328 36.6371517,40.669969 C39.0501548,40.6513932 41.4631579,40.593808 43.8724458,40.4916409 C44.3275542,40.473065 44.8458204,40.25387 45.2024768,39.9659443 C46.8037152,38.673065 46.9783282,37.3114551 45.7597523,35.203096 C39.6965944,24.7114551 33.6167183,14.2291022 27.5219814,3.75417957 C27.2526316,3.29164087 26.847678,2.8495356 26.4018576,2.55789474 C24.7708978,1.49349845 22.5900929,2.01547988 21.5702786,3.74117647 C15.2229102,14.4575851 8.88668731,25.1814241 2.57089783,35.9182663 C1.34674923,38.0006192 2.96099071,40.6532508 5.39071207,40.6588235 C11.0842105,40.669969 16.7795666,40.679257 22.473065,40.6885449 C22.777709,40.6885449 23.0804954,40.6885449 23.3925697,40.6885449 C23.4352941,40.876161 23.4873065,40.9950464 23.4854489,41.1120743 C23.4798762,43.123839 23.4910217,45.1356037 23.4501548,47.1455108 C23.4241486,48.4179567 22.9857585,48.819195 21.6817337,48.8600619 C20.7232198,48.8897833 19.7628483,48.8786378 18.8043344,48.895356 C18.1244582,48.9065015 17.476161,48.9417957 17.4557276,49.8891641 C17.4334365,50.8941176 18.1764706,50.8291022 18.8043344,50.8625387 C19.7312693,50.9145511 20.6600619,50.8978328 21.5888545,50.9145511 C23.126935,50.9424149 23.4910217,51.3176471 23.5040248,52.8260062 C23.5151703,54.1560372 23.5467492,55.4860681 23.5727554,56.8160991 C23.5839009,57.4123839 23.6786378,57.9640867 24.4569659,57.9640867 C25.2037152,57.9640867 25.4934985,57.4941176 25.5213622,56.8291022 C25.5752322,55.593808 25.6105263,54.3566563 25.6402477,53.1195046 C25.6829721,51.2210526 25.8947368,50.9981424 27.7708978,50.9182663 C28.8204334,50.8736842 29.869969,50.8291022 30.9195046,50.7770898 C31.4712074,50.749226 31.6328173,50.4130031 31.6402477,49.9040248 C31.6513932,49.1758514 31.2594427,48.9139319 30.6037152,48.904644 C29.4594427,48.8879257 28.3133127,48.8934985 27.1690402,48.8470588 C26.3962848,48.8154799 25.6922601,48.5219814 25.6718266,47.6433437 C25.6216718,45.3640867 25.6551084,43.0811146 25.6551084,40.6773994 Z" id="Shape"></path>
            <path d="M24.3399381,38.6433437 C18.4922601,38.6433437 12.6427245,38.6433437 6.79504644,38.6414861 C6.39380805,38.6414861 5.98885449,38.6470588 5.58947368,38.6080495 C4.53065015,38.5021672 4.0123839,37.5195046 4.55108359,36.6 C10.6978328,26.1250774 16.8464396,15.65387 23.0099071,5.18823529 C23.803096,3.83962848 25.2055728,3.8006192 26.0489164,5.16408669 C27.5609907,7.60681115 28.9857585,10.1052632 30.4160991,12.5981424 C34.8334365,20.2922601 39.2359133,27.993808 43.6439628,35.6916409 C43.7981424,35.9591331 43.9337461,36.2377709 44.073065,36.5126935 C44.6693498,37.6959752 44.1455108,38.6099071 42.8117647,38.6136223 C36.65387,38.628483 30.4959752,38.6210526 24.3380805,38.6210526 C24.3399381,38.6303406 24.3399381,38.6377709 24.3399381,38.6433437 Z M41.8513932,36.5331269 C36.05387,26.4631579 30.3510836,16.5603715 24.5609907,6.50340557 C18.5925697,16.6105263 12.7448916,26.5151703 6.82848297,36.5331269 C18.5386997,36.5331269 30.0668731,36.5331269 41.8513932,36.5331269 Z" id="Shape"></path>
        </g>
    </g>
</svg>